# xmcd
#
# Track frame offsets:
#	150
#	10698
#	21528
#	38967
#	51510
#	65259
#	93500
#	107473
#	125706
#	136129
#	165744
#	180756
#	203445
#	216800
#	239761
#	258787
#	271672
#	292347
#
# Disc length: 4374 seconds
#
# Revision: 1
# Processed by: cddbd v1.5.2PL0 Copyright (c) Steve Scherf et al.
# Submitted via: audiograbber 1.83.01
#
DISCID=01111412
DTITLE=IJmond Poparchief - Volume 2 cd2
DYEAR=1900
DGENRE=Pop
TTITLE0=Laveloos - Vannacht Oom Karel
TTITLE1=Laveloos - Vanavond gaan we zuipen
TTITLE2=Out of Reach - Route 62 a realise
TTITLE3=Nightshift - Rainbow blues
TTITLE4=De Glazenwassers - De glazenwassers
TTITLE5=Low - Walking in the shade of the night
TTITLE6=Mad Mill - Verliefd op een ander
TTITLE7=Prisma - Chimero
TTITLE8=Dubbel and Dwars - De stoelen van belang
TTITLE9=Out of Reach - Sugar mama
TTITLE10=Bizkids - Old persons bungalow
TTITLE11=Darjili - Hobbitan
TTITLE12=Prima - Onweer in Beverwijk
TTITLE13=New City Blues Band - Saturday night
TTITLE14=Dizzy Man's Band - You keep me hangin' on
TTITLE15=Helen Shepherd - The bells of Amsterdam
TTITLE16=Box Eighteen - Buzzy
TTITLE17=Hellhound - Mighty man
EXTD=
EXTT0=
EXTT1=
EXTT2=
EXTT3=
EXTT4=
EXTT5=
EXTT6=
EXTT7=
EXTT8=
EXTT9=
EXTT10=
EXTT11=
EXTT12=
EXTT13=
EXTT14=
EXTT15=
EXTT16=
EXTT17=
PLAYORDER=
